<?xml version="1.0" encoding="UTF-8"?>
<svg version="1.1" xmlns="http://www.w3.org/2000/svg" width="512" height="512">
<path d="M0 0 C0.90124796 -0.00630794 1.80249592 -0.01261588 2.73105443 -0.01911497 C3.72752739 -0.02097697 4.72400036 -0.02283896 5.75066948 -0.02475739 C6.80437386 -0.03055077 7.85807825 -0.03634416 8.94371307 -0.0423131 C12.49808425 -0.06044668 16.05243945 -0.07126591 19.60684013 -0.08200836 C22.14584818 -0.09317839 24.68485474 -0.10469154 27.22385979 -0.11652374 C35.5831074 -0.15314317 43.94236898 -0.17837272 52.30166435 -0.20114899 C53.01238867 -0.20312389 53.723113 -0.20509879 54.45537442 -0.20713353 C68.56667993 -0.24629841 82.67799424 -0.28000524 96.78933716 -0.30221558 C99.89273021 -0.30718493 102.99612313 -0.31222925 106.09951591 -0.31735992 C106.87085565 -0.3186306 107.64219539 -0.31990127 108.43690906 -0.32121044 C120.92807169 -0.34256391 133.41897099 -0.39155124 145.91000117 -0.45160407 C158.73348113 -0.51274683 171.5568253 -0.54740667 184.38044918 -0.55668879 C191.58079566 -0.56259819 198.78069633 -0.5803355 205.9808979 -0.62807465 C212.75586828 -0.67295275 219.52995737 -0.68224819 226.3051033 -0.66744614 C228.79156514 -0.66777534 231.27805871 -0.68009436 233.76439285 -0.70529556 C237.1605487 -0.73790109 240.55394866 -0.72727129 243.95013237 -0.70590973 C245.42476533 -0.73547138 245.42476533 -0.73547138 246.92918885 -0.76563025 C253.30778708 -0.66438156 256.55641711 0.84793597 261.13104427 5.30515432 C263.05923776 7.51907419 264.62305182 9.79594945 266.09321404 12.33127594 C272.12921349 22.63894872 280.31209531 31.96518273 291.73135185 36.14260101 C308.02777964 39.82966989 325.80915773 38.43461336 342.37661552 37.90969086 C343.6536848 37.86950883 343.6536848 37.86950883 344.95655346 37.82851505 C349.03049357 37.69231849 353.09733414 37.51994405 357.16636467 37.27716827 C357.90916837 37.24005297 358.65197206 37.20293766 359.41728497 37.16469765 C361.41298786 37.06409518 363.40758806 36.94224391 365.40200615 36.81876373 C368.73135185 37.14260101 368.73135185 37.14260101 371.6443615 38.44831085 C374.97577671 42.74914492 374.38705253 47.04725849 374.29897881 52.33693695 C374.29970894 53.47868881 374.30043907 54.62044067 374.30119133 55.79679108 C374.29770546 59.57400116 374.25879385 63.34998111 374.2196331 67.12697601 C374.21030862 69.74442115 374.20319079 72.361875 374.1981945 74.97933197 C374.18265905 81.16658052 374.14163533 87.35338689 374.09144706 93.5404408 C374.03554373 100.58507698 374.00806472 107.62973437 373.98296988 114.67453718 C373.93071874 129.1641198 373.84278266 143.65335422 373.73135185 158.14260101 C374.49778008 158.43360687 375.2642083 158.72461273 376.05386162 159.02443695 C398.85337155 168.54588817 416.42109445 195.40573967 425.6024456 217.21144867 C438.96785228 249.93975731 438.75047454 285.28769767 425.55166435 318.06447601 C415.77950066 340.82579528 397.2724895 364.87203219 374.73135185 376.14260101 C374.72548561 377.40127487 374.71961937 378.65994873 374.71357536 379.95676422 C374.65643161 391.80245355 374.58371392 403.64795782 374.49563694 415.49345875 C374.45085613 421.58376818 374.41161704 427.67400952 374.38491631 433.76442719 C374.35896026 439.63895432 374.31861263 445.51322049 374.26816559 451.38758659 C374.25144467 453.63189899 374.23996306 455.87625658 374.23373795 458.12062263 C374.22415365 461.25754209 374.19616237 464.39378594 374.1637249 467.53054047 C374.16515999 468.46417923 374.16659508 469.39781799 374.16807365 470.35974884 C374.15553551 471.21370239 374.14299736 472.06765594 374.13007927 472.94748688 C374.1254703 473.68953023 374.12086134 474.43157358 374.11611271 475.1961031 C373.60363665 477.78870983 372.82450216 478.53853403 370.73135185 480.14260101 C368.18853045 480.51864851 368.18853045 480.51864851 365.07629967 480.52012444 C363.89130552 480.52794768 362.70631137 480.53577092 361.48540831 480.54383123 C360.17716172 480.53713906 358.86891513 480.5304469 357.5210247 480.52355194 C356.12226257 480.52700665 354.72350316 480.53176996 353.32474947 480.53773367 C349.47211221 480.55029913 345.61969685 480.54404827 341.76705861 480.53477502 C337.61567036 480.52800746 333.46432117 480.53845433 329.3129406 480.54671478 C321.17686111 480.5600789 313.04086448 480.55716249 304.9047817 480.54847686 C298.29445932 480.54171123 291.68416022 480.54077873 285.07383537 480.54404831 C283.66447314 480.54473786 283.66447314 480.54473786 282.22663894 480.54544134 C280.31811773 480.54640048 278.40959653 480.54737312 276.50107533 480.54835911 C258.59028277 480.55692085 240.67953622 480.54706659 222.7687512 480.53095801 C207.38891144 480.51755412 192.00913961 480.51988199 176.62930107 480.53371429 C158.78411537 480.54975628 140.93897003 480.5560968 123.09377813 480.5468775 C121.19214154 480.54592182 119.29050494 480.54497871 117.38886833 480.54404831 C115.98527891 480.54335407 115.98527891 480.54335407 114.55333415 480.5426458 C107.94830097 480.54005176 101.34329331 480.54443581 94.73826408 480.55148697 C86.69272913 480.55988685 78.64728202 480.5576538 70.60175717 480.54164474 C66.49407497 480.53374156 62.38653941 480.53070506 58.27885818 480.54059219 C54.52235937 480.54949752 50.76614384 480.54467561 47.00967091 480.52865954 C44.99887885 480.52369322 42.98806729 480.53354539 40.9772954 480.54383123 C39.19980417 480.53209637 39.19980417 480.53209637 37.38640404 480.52012444 C35.8458498 480.51939385 35.8458498 480.51939385 34.27417326 480.51864851 C31.73135185 480.14260101 31.73135185 480.14260101 29.8991971 478.83536017 C27.93076316 475.98217 28.3673846 472.7512785 28.4383831 469.41213226 C28.44262794 468.66171158 28.44687279 467.91129089 28.45124626 467.13813019 C28.46802735 464.74342076 28.50567695 462.34955568 28.54385185 459.95510101 C28.5588995 458.33076422 28.57258777 456.70641422 28.58486748 455.08205414 C28.6179288 451.10191154 28.66970592 447.12239939 28.73135185 443.14260101 C27.8184539 443.15831146 26.90555595 443.17402191 25.96499443 443.19020844 C22.56373175 443.24147071 19.16288222 443.27901541 15.76138115 443.30739594 C14.29191403 443.32244167 12.82249151 443.34288339 11.35317802 443.36891937 C9.23563416 443.40549057 7.1186862 443.42236902 5.0008831 443.43556976 C3.72833672 443.45128021 2.45579033 443.46699066 1.14468193 443.48317719 C-2.52608965 443.11691395 -4.39275996 442.419665 -7.26864815 440.14260101 C-8.45162859 436.59365969 -8.39526555 433.78612584 -8.3972826 430.03792667 C-8.39903564 429.3062861 -8.40078867 428.57464552 -8.40259483 427.82083401 C-8.40727573 425.34999186 -8.40478398 422.87920802 -8.40236092 420.40836334 C-8.40422783 418.6267107 -8.40652806 416.84505846 -8.40922624 415.06340688 C-8.41536532 410.15242285 -8.41520818 405.24145578 -8.41403186 400.33046877 C-8.41382839 395.04000434 -8.41934148 389.74954544 -8.42408943 384.45908356 C-8.43240791 374.0888022 -8.43514481 363.71852653 -8.43570181 353.34824211 C-8.43617637 344.92252606 -8.43822811 336.49681188 -8.44140244 328.07109642 C-8.450212 304.2032703 -8.4548213 280.33544868 -8.45407196 256.46762092 C-8.45403201 255.17998593 -8.45399205 253.89235094 -8.45395088 252.56569672 C-8.45391 251.27649688 -8.45386912 249.98729705 -8.453827 248.65903055 C-8.45342037 227.75563577 -8.46299353 206.85225899 -8.47708925 185.94886941 C-8.49143537 164.50563853 -8.49836042 143.06241643 -8.49749547 121.61918062 C-8.49716291 109.57226739 -8.49993595 97.52537304 -8.51067352 85.47846413 C-8.51975533 75.22320674 -8.52197293 64.96797678 -8.5151641 54.71271712 C-8.51188721 49.47686759 -8.51188411 44.24107074 -8.52051735 39.00522614 C-8.52833188 34.21682642 -8.52700306 29.42852163 -8.51823322 24.64012437 C-8.51668703 22.90327643 -8.51855604 21.16642158 -8.52409329 19.42958177 C-8.53109885 17.07731003 -8.52590305 14.72537631 -8.51753712 12.37311649 C-8.51775449 11.06394813 -8.51797185 9.75477977 -8.51819581 8.40593964 C-8.28440594 5.34866594 -7.99071069 3.64253828 -6.26864815 1.14260101 C-3.94258958 -0.02042827 -2.59079569 0.01131789 0 0 Z " fill="#000102" transform="translate(42.26864814758301,15.857398986816406)"/>
<path d="M0 0 C78.87 0 157.74 0 239 0 C239.33 25.08 239.66 50.16 240 76 C243.18458845 79.18458845 243.87813263 79.3527363 248.13285828 79.4367218 C248.82337784 79.43528671 249.5138974 79.43385162 250.2253418 79.43237305 C250.95729767 79.4425647 251.68925354 79.45275635 252.44338989 79.46325684 C254.86207679 79.49344432 257.28036804 79.50266126 259.69921875 79.51171875 C261.37646304 79.52856123 263.05369466 79.54671088 264.73091125 79.56611633 C269.14494879 79.61366953 273.55893502 79.64344434 277.97314453 79.66955566 C283.26964234 79.70457029 288.56594305 79.76159806 293.8622818 79.81494904 C301.90816316 79.89352536 309.95378545 79.94408334 318 80 C318 95.84 318 111.68 318 128 C313.359375 127.896875 308.71875 127.79375 303.9375 127.6875 C290.03445546 127.57706551 277.36738963 128.98017397 264 133 C263.25234375 133.22461914 262.5046875 133.44923828 261.734375 133.68066406 C246.04978736 138.59640846 227.3265243 147.57020677 216.88441753 160.64997578 C212.51588716 165.82609901 209.15382545 169.47318222 202.08278829 170.22280139 C198.18423081 170.40302373 194.31148427 170.34583066 190.41137695 170.2487793 C188.62784941 170.24540417 186.84430719 170.24688734 185.06078625 170.25279713 C180.31144706 170.25526683 175.56519589 170.1918227 170.81658173 170.11408234 C166.3504076 170.05113368 161.88495994 170.04847251 157.41833496 170.04064941 C144.38265226 169.98307643 131.34753638 169.82950182 118.3125 169.6875 C89.169375 169.460625 60.02625 169.23375 30 169 C30 229.72 30 290.44 30 353 C75.21 353 120.42 353 167 353 C166.34 354.98 165.68 356.96 165 359 C164.52591541 363.42478948 164.69492796 365.45087032 166.875 369.375 C168.73102809 372.03793194 168.73102809 372.03793194 171 373 C178.44290361 373.36472267 185.38158961 372.28239562 192.69921875 370.99609375 C195.14907274 370.58128687 197.59894302 370.16657619 200.04882812 369.75195312 C203.88081118 369.09420448 207.71221201 368.43322042 211.54321289 367.76977539 C215.26053927 367.12870951 218.97971882 366.49940561 222.69921875 365.87109375 C224.41500374 365.5680558 224.41500374 365.5680558 226.16545105 365.25889587 C227.23709 365.07863358 228.30872894 364.89837128 229.4128418 364.71264648 C230.34944138 364.55054184 231.28604095 364.38843719 232.25102234 364.22142029 C236.85538049 363.85055576 240.87502999 364.69167408 244.98828125 366.7421875 C245.68985352 367.08483643 246.39142578 367.42748535 247.11425781 367.78051758 C247.83967773 368.14169678 248.56509766 368.50287598 249.3125 368.875 C267.29990535 377.55692608 284.7454624 380.19453172 304.625 380.0625 C309.03875 380.041875 313.4525 380.02125 318 380 C318 391.88 318 403.76 318 416 C213.06 416 108.12 416 0 416 C0 278.72 0 141.44 0 0 Z " fill="#FBFBFB" transform="translate(48,29)"/>
<path d="M0 0 C2.02941315 0.01608131 4.0568281 0.00004416 6.08618164 -0.01904297 C18.29531367 -0.03958652 30.10647233 1.85404217 41.59594727 6.07861328 C42.64939331 6.46206909 42.64939331 6.46206909 43.72412109 6.85327148 C71.94939168 17.49444272 94.34282132 39.13353573 107.1965332 66.34033203 C113.71803785 81.21021233 116.4824021 95.79740787 116.40844727 112.01611328 C116.40562744 112.67818787 116.40280762 113.34026245 116.39990234 114.0223999 C116.19551995 145.99956869 104.38008307 172.33313377 82.40844727 195.45361328 C68.32456872 209.14687578 50.94159982 218.1704918 32.09594727 223.39111328 C30.9602832 223.71080078 29.82461914 224.03048828 28.65454102 224.35986328 C1.0835916 230.78416217 -28.68445053 226.97785053 -53.02905273 212.45361328 C-53.62975586 212.05271484 -54.23045898 211.65181641 -54.84936523 211.23876953 C-60.3988691 208.94933543 -67.06089632 210.78806052 -72.77514648 211.85205078 C-73.61513687 212.00267975 -74.45512726 212.15330872 -75.3205719 212.3085022 C-77.99530315 212.78865243 -80.66851448 213.27663265 -83.34155273 213.76611328 C-95.50371602 215.98454564 -107.61359809 218.01890428 -119.90405273 219.39111328 C-117.9588147 212.55381895 -115.67091939 205.94009358 -113.07592773 199.32470703 C-112.35101359 197.43900649 -111.62708429 195.55292709 -110.90405273 193.66650391 C-109.77858497 190.7379758 -108.64759054 187.81217486 -107.49975586 184.89233398 C-106.38227621 182.04299966 -105.28975801 179.18509096 -104.20092773 176.32470703 C-103.85519714 175.46195663 -103.50946655 174.59920624 -103.15325928 173.71031189 C-99.76930825 164.69366284 -101.44133077 157.68655746 -104.84155273 148.95361328 C-109.32297364 137.34117225 -110.34679269 126.37800561 -110.34155273 114.01611328 C-110.3422879 113.26299866 -110.34302307 112.50988403 -110.34378052 111.73394775 C-110.31211787 99.37304507 -109.2342816 88.07165577 -104.90405273 76.39111328 C-104.6470459 75.6840625 -104.39003906 74.97701172 -104.12524414 74.24853516 C-92.68758127 43.72001572 -69.19070146 20.88658878 -39.90405273 7.39111328 C-27.10992839 2.10758534 -13.79157085 -0.12931152 0 0 Z " fill="#30A6F9" transform="translate(346.904052734375,169.60888671875)"/>
<path d="M0 0 C0 27.39 0 54.78 0 83 C-104.61 83 -209.22 83 -317 83 C-317 75.08 -317 67.16 -317 59 C-313.37351974 58.99191315 -309.74703949 58.98382629 -306.01066589 58.97549438 C-272.78052658 58.9004722 -239.55042415 58.81560299 -206.3203376 58.71994839 C-201.96803453 58.70742902 -197.61573121 58.69499632 -193.26342773 58.68261719 C-192.39693638 58.68015119 -191.53044503 58.6776852 -190.63769636 58.67514448 C-176.59443814 58.63538487 -162.55117183 58.60265173 -148.50789007 58.57250018 C-134.10584319 58.54142252 -119.70383071 58.50282902 -105.30182248 58.45720994 C-96.4099078 58.42928272 -87.51801838 58.4072681 -78.62607155 58.39273749 C-72.53444075 58.38222225 -66.44285876 58.36442854 -60.35126468 58.34083296 C-56.83299119 58.32742244 -53.31478633 58.31729604 -49.7964859 58.31578636 C-45.98768531 58.31406848 -42.17904275 58.29706237 -38.37028503 58.2784729 C-36.69083031 58.281375 -36.69083031 58.281375 -34.97744721 58.28433573 C-33.96128935 58.27687024 -32.94513149 58.26940475 -31.89818096 58.26171303 C-31.01836896 58.25943471 -30.13855695 58.25715638 -29.23208398 58.25480902 C-26.71449727 58.13953908 -26.71449727 58.13953908 -24 56 C-23.52454116 53.86668405 -23.52454116 53.86668405 -23.56762695 51.36669922 C-23.53793571 49.92543167 -23.53793571 49.92543167 -23.50764465 48.45504761 C-23.50125473 47.41542877 -23.49486481 46.37580994 -23.48828125 45.3046875 C-23.47033005 44.24210724 -23.45237885 43.17952698 -23.43388367 42.08474731 C-23.37957998 38.68153893 -23.34582037 35.27847236 -23.3125 31.875 C-23.27934468 29.57159476 -23.24485671 27.26820828 -23.20898438 24.96484375 C-23.12384223 19.31002301 -23.05557768 13.65518436 -23 8 C-21.74610046 7.52865557 -20.49209106 7.05760338 -19.23803711 6.58666992 C-18.19056557 6.19314583 -18.19056557 6.19314583 -17.12193298 5.79167175 C-13.94440951 4.60616986 -10.75509627 3.45688596 -7.5625 2.3125 C-5.73912109 1.65701172 -5.73912109 1.65701172 -3.87890625 0.98828125 C-1 0 -1 0 0 0 Z " fill="#30A5F8" transform="translate(402,399)"/>
<path d="M0 0 C2.4375 1.375 2.4375 1.375 4 4 C4.32131194 7.36060684 4.23114045 10.63562234 4 14 C4.78375 14.04125 5.5675 14.0825 6.375 14.125 C14.54316542 16.09662614 21.33869562 21.04457403 26 28 C29.88810811 34.55102459 31.5604149 40.29429509 31 48 C30 50.4375 30 50.4375 28 52 C25.23779992 52.5581946 22.72844554 52.74812216 20 52 C17.29566742 49.23945728 16.58468726 46.89178902 16.0625 43.125 C15.10078756 37.89328435 13.72847146 34.20482542 9.453125 30.75 C3.24677662 26.93070869 -3.9653004 26.92593747 -11 28 C-16.95419583 30.59236526 -20.59625422 35.09079163 -23 41 C-23.96854185 46.58929361 -23.12830537 51.29256342 -20.31640625 56.2109375 C-16.23909833 61.75220465 -11.28767562 63.51864492 -4.6796875 64.61328125 C-3.79539062 64.74089844 -2.91109375 64.86851562 -2 65 C7.87251659 66.47125247 17.10177855 68.68979124 23.53125 76.97265625 C29.66270848 85.73402951 32.24346932 93.1860084 31 104 C28.43915499 114.04082733 22.89260152 121.25570171 14.24609375 126.7734375 C10.76492872 128.67445632 8.0011845 130 4 130 C4.04640625 130.59167969 4.0928125 131.18335938 4.140625 131.79296875 C4.32551506 135.84074034 4.30915469 138.39405681 2.4375 142.0625 C0 144 0 144 -3.5625 144.5625 C-7 144 -7 144 -8.703125 142.29296875 C-10.2575526 139.54462839 -10.31112781 137.8819045 -10.1875 134.75 C-10.16042969 133.85796875 -10.13335937 132.9659375 -10.10546875 132.046875 C-10.07066406 131.37140625 -10.03585937 130.6959375 -10 130 C-10.969375 129.95875 -11.93875 129.9175 -12.9375 129.875 C-20.62830116 128.74080104 -26.74681938 122.95187063 -31.4921875 117.125 C-36.02818445 110.73229964 -37.44472534 105.19719086 -37.43359375 97.3828125 C-36.92166271 94.56949775 -36.31438601 93.64626072 -34 92 C-27.88903277 91.34525351 -27.88903277 91.34525351 -25.33984375 93.22265625 C-23.66904324 95.43902427 -23.43678817 97.07472926 -23.0625 99.8125 C-21.93525623 106.01684972 -19.66337472 110.0100929 -14.625 113.875 C-8.83137373 117.21664212 -2.45609259 116.91799918 4 116 C8.82847568 114.38060354 11.90009786 111.73207738 14.5 107.375 C16.61959919 102.3788019 16.80760869 97.32695428 16 92 C13.52222543 86.95268143 10.19959787 83.2882276 4.9140625 81.16015625 C0.1301701 79.60423008 -4.50979206 78.7818526 -9.5 78.1875 C-18.81583639 76.83944367 -25.68779041 72.45368322 -31.52734375 65.109375 C-37.82067352 56.09505649 -38.15034541 47.18703277 -36.6328125 36.38671875 C-34.10673795 26.64576005 -25.66467239 19.87354805 -17.359375 14.9609375 C-14.73443583 13.89183976 -12.80769011 13.81082939 -10 14 C-10.05220703 12.86111328 -10.05220703 12.86111328 -10.10546875 11.69921875 C-10.13253906 10.70535156 -10.15960938 9.71148437 -10.1875 8.6875 C-10.22230469 7.70136719 -10.25710938 6.71523437 -10.29296875 5.69921875 C-10 3 -10 3 -8.703125 1.171875 C-5.81067669 -0.81834173 -3.3848703 -0.41568583 0 0 Z " fill="#000305" transform="translate(352,211)"/>
<path d="M0 0 C36.96 0 73.92 0 112 0 C110.5343386 4.39698419 109.63645942 6.85615873 107.25 10.5 C103.12796768 17.20688588 103.12796768 17.20688588 98 30 C65.66 30 33.32 30 0 30 C0 20.1 0 10.2 0 0 Z " fill="#F7F7F7" transform="translate(132,211)"/>
<path d="M0 0 C31.02 0 62.04 0 94 0 C93.34 4.29 92.68 8.58 92 13 C91.67 18.61 91.34 24.22 91 30 C60.97 30 30.94 30 0 30 C0 20.1 0 10.2 0 0 Z " fill="#F6F6F6" transform="translate(132,254)"/>
<path d="M0 0 C30.36 0 60.72 0 92 0 C93.32 6.93 94.64 13.86 96 21 C96.99 23.475 96.99 23.475 98 26 C98 26.99 98 27.98 98 29 C65.66 29 33.32 29 0 29 C0 19.43 0 9.86 0 0 Z " fill="#FDFDFD" transform="translate(132,297)"/>
<path d="M0 0 C32.34 0 64.68 0 98 0 C95.99466523 10.02667383 91.59032185 19.42580841 88 29 C58.96 29 29.92 29 0 29 C0 19.43 0 9.86 0 0 Z " fill="#FDFDFD" transform="translate(132,340)"/>
<path d="M0 0 C17.49 0 34.98 0 53 0 C53 32.67 53 65.34 53 99 C35 93 35 93 30 91 C30.0030162 90.26608032 30.00603241 89.53216064 30.00914001 88.77600098 C30.03145959 81.83216219 30.02005667 74.88909262 29.97153378 67.94541168 C29.94776006 64.37607496 29.93666122 60.80766837 29.95532227 57.23828125 C29.97287993 53.78821172 29.95610685 50.3398062 29.91632271 46.88993835 C29.9026151 44.94475658 29.92372788 42.99942905 29.94554138 41.05432129 C29.85031096 35.18846206 29.71119929 31.03786026 25.78710938 26.47827148 C24.55000395 25.29192783 23.28874245 24.13003717 22 23 C21.05571575 22.03542315 20.117055 21.06528811 19.18579102 20.08813477 C18.30076904 19.21471436 17.41574707 18.34129395 16.50390625 17.44140625 C15.78629372 16.72947365 15.78629372 16.72947365 15.05418396 16.00315857 C13.55943298 14.5204108 12.06140476 13.04104777 10.5625 11.5625 C8.56095887 9.58748189 6.56272573 7.60920045 4.56640625 5.62890625 C3.68927979 4.76338135 2.81215332 3.89785645 1.90844727 3.00610352 C0 1 0 1 0 0 Z " fill="#30A5F8" transform="translate(349,68)"/>
<path d="M0 0 C0.6497314 -0.00467997 1.2994628 -0.00935994 1.96888304 -0.01418173 C4.15007547 -0.02616564 6.33064352 -0.01666181 8.51184082 -0.00723267 C10.07390205 -0.01129688 11.63596041 -0.01663792 13.19801331 -0.02316284 C17.4438409 -0.03686019 21.68945025 -0.03152788 25.93528175 -0.02202559 C30.37417829 -0.01444148 34.81305587 -0.02147111 39.25195312 -0.02618408 C46.70694339 -0.03164529 54.16184455 -0.02444047 61.61682129 -0.01016235 C70.24140612 0.00616488 78.8657782 0.00087663 87.49035788 -0.01564157 C94.88914867 -0.02924607 102.28787534 -0.03118118 109.68667459 -0.02332556 C114.10832616 -0.01864333 118.52987765 -0.01803925 122.95152283 -0.02793503 C127.10808227 -0.03658738 131.26436685 -0.0306147 135.42089653 -0.01325226 C136.94833863 -0.00927812 138.47580377 -0.01043728 140.00323677 -0.01704025 C142.08458504 -0.02520968 144.1650465 -0.0149914 146.24633789 0 C147.99512615 0.00169662 147.99512615 0.00169662 149.77924347 0.00342751 C152.62316895 0.38095093 152.62316895 0.38095093 154.49828339 1.68601036 C156.39546021 4.54461401 155.97789195 7.07020288 155.62316895 10.38095093 C154.49828339 12.07589149 154.49828339 12.07589149 152.62316895 13.38095093 C149.77924347 13.75847435 149.77924347 13.75847435 146.24633789 13.76190186 C145.59660649 13.76658183 144.94687509 13.7712618 144.27745485 13.77608359 C142.09626242 13.78806749 139.91569437 13.77856367 137.73449707 13.76913452 C136.17243584 13.77319874 134.61037748 13.77853977 133.04832458 13.7850647 C128.80249699 13.79876205 124.55688764 13.79342974 120.31105614 13.78392744 C115.8721596 13.77634334 111.43328202 13.78337297 106.99438477 13.78808594 C99.53939451 13.79354714 92.08449334 13.78634233 84.6295166 13.77206421 C76.00493177 13.75573698 67.38055969 13.76102523 58.75598001 13.77754343 C51.35718922 13.79114792 43.95846255 13.79308304 36.5596633 13.78522742 C32.13801173 13.78054518 27.71646024 13.77994111 23.29481506 13.78983688 C19.13825563 13.79848923 14.98197104 13.79251655 10.82544136 13.77515411 C9.29799926 13.77117997 7.77053412 13.77233913 6.24310112 13.77894211 C4.16175285 13.78711153 2.08129139 13.77689326 0 13.76190186 C-1.74878826 13.76020524 -1.74878826 13.76020524 -3.53290558 13.75847435 C-6.37683105 13.38095093 -6.37683105 13.38095093 -8.2519455 12.07589149 C-10.14912232 9.21728785 -9.73155406 6.69169898 -9.37683105 3.38095093 C-6.93114645 -0.30412621 -4.18400197 0.00405918 0 0 Z " fill="#000000" transform="translate(87.3768310546875,93.61904907226563)"/>
<path d="M0 0 C0.6497314 -0.00467997 1.2994628 -0.00935994 1.96888304 -0.01418173 C4.15007547 -0.02616564 6.33064352 -0.01666181 8.51184082 -0.00723267 C10.07390205 -0.01129688 11.63596041 -0.01663792 13.19801331 -0.02316284 C17.4438409 -0.03686019 21.68945025 -0.03152788 25.93528175 -0.02202559 C30.37417829 -0.01444148 34.81305587 -0.02147111 39.25195312 -0.02618408 C46.70694339 -0.03164529 54.16184455 -0.02444047 61.61682129 -0.01016235 C70.24140612 0.00616488 78.8657782 0.00087663 87.49035788 -0.01564157 C94.88914867 -0.02924607 102.28787534 -0.03118118 109.68667459 -0.02332556 C114.10832616 -0.01864333 118.52987765 -0.01803925 122.95152283 -0.02793503 C127.10808227 -0.03658738 131.26436685 -0.0306147 135.42089653 -0.01325226 C136.94833863 -0.00927812 138.47580377 -0.01043728 140.00323677 -0.01704025 C142.08458504 -0.02520968 144.1650465 -0.0149914 146.24633789 0 C147.99512615 0.00169662 147.99512615 0.00169662 149.77924347 0.00342751 C152.62316895 0.38095093 152.62316895 0.38095093 154.49437714 1.68601036 C156.42063206 4.57838395 156.04153758 7.03400188 155.62316895 10.38095093 C153.35657419 12.74241862 151.95076618 13.3384712 148.69022369 13.76126766 C147.54133415 13.76369756 146.39244461 13.76612745 145.20874023 13.76863098 C144.56702708 13.77401652 143.92531392 13.77940206 143.26415491 13.78495079 C141.11605249 13.79924695 138.96856486 13.79212304 136.82043457 13.78500366 C135.27955123 13.79070635 133.73867212 13.79767021 132.19779968 13.80580139 C128.01395629 13.82375802 123.83032232 13.8225599 119.64645195 13.81685901 C116.15472668 13.81377116 112.66304187 13.81985501 109.17132235 13.82589775 C100.93534772 13.83994922 92.69947682 13.83837617 84.46350098 13.82699585 C75.963269 13.81551003 67.46335237 13.82959657 58.96316195 13.85639232 C51.66709051 13.87853216 44.37111819 13.88519071 37.07501554 13.87931591 C32.71646289 13.87594147 28.35811246 13.8783937 23.99958801 13.89556694 C19.90204731 13.91100709 15.80497478 13.90711356 11.70745277 13.8882618 C10.20300195 13.88456792 8.69851666 13.88770763 7.19409752 13.89814758 C5.14138771 13.91130585 3.09023974 13.8998592 1.03759766 13.88215637 C-0.11129189 13.88194709 -1.26018143 13.8817378 -2.4438858 13.88152218 C-6.02720287 13.26995075 -7.21260425 12.255265 -9.37683105 9.38095093 C-9.81996789 6.27899309 -10.04400552 4.36196949 -8.24803925 1.72116661 C-5.501141 -0.24624468 -3.3572701 0.00325711 0 0 Z " fill="#000000" transform="translate(87.3768310546875,125.61904907226563)"/>
<path d="M0 0 C4.2603034 3.65168863 8.26322789 7.13757549 12.20092773 11.0715332 C12.67012131 11.53897446 13.13931488 12.00641571 13.62272644 12.48802185 C15.14551032 14.00646669 16.66468119 15.52846468 18.18359375 17.05078125 C19.24961513 18.11612798 20.31578483 19.18132632 21.38209534 20.24638367 C23.60165311 22.46447586 25.81941354 24.68434512 28.03588867 26.90551758 C30.88294135 29.75830884 33.73451666 32.6065308 36.58741665 35.45347309 C38.78271246 37.64516796 40.97563668 39.83922321 43.16783333 42.03401756 C44.21932563 43.08617827 45.27156493 44.13759299 46.32455254 45.18825722 C47.78707209 46.64825343 49.24637562 48.11138789 50.70483398 49.57543945 C51.53643539 50.40783646 52.3680368 51.24023346 53.22483826 52.09785461 C55 54 55 54 55 55 C36.85 55 18.7 55 0 55 C0 36.85 0 18.7 0 0 Z " fill="#30A6F9" transform="translate(300,40)"/>
<path d="M0 0 C1.43964363 -0.01029488 1.43964363 -0.01029488 2.90837097 -0.02079773 C6.08164247 -0.0391029 9.25442139 -0.03522321 12.42773438 -0.02954102 C14.63204103 -0.03410069 16.83634626 -0.03940562 19.04064941 -0.04542542 C23.66078466 -0.05436359 28.28074711 -0.05192488 32.90087891 -0.04199219 C38.82621583 -0.03049577 44.75095743 -0.05072113 50.67621613 -0.07990932 C55.22808632 -0.09823962 59.77981298 -0.09798528 64.33171082 -0.0922718 C66.51662532 -0.09211823 68.70154934 -0.09819198 70.88642883 -0.11056328 C73.93899092 -0.12541306 76.99044184 -0.11484046 80.04296875 -0.09765625 C80.94802658 -0.10732422 81.85308441 -0.11699219 82.78556824 -0.12695312 C88.86327053 -0.05517749 88.86327053 -0.05517749 92.1138916 2.2127533 C93.52148438 4.40405273 93.52148438 4.40405273 93.52148438 7.96655273 C92.52148438 11.40405273 92.52148438 11.40405273 91.03892517 13.09364319 C87.1861122 15.09915724 83.52532192 14.82989614 79.24243164 14.80810547 C77.83445816 14.81840034 77.83445816 14.81840034 76.39804077 14.8289032 C73.29450361 14.84720801 70.1914702 14.84332835 67.08789062 14.83764648 C64.93082006 14.84220656 62.77375095 14.84751161 60.61668396 14.85353088 C56.09490051 14.86246927 51.5732936 14.86003057 47.05151367 14.85009766 C41.25630637 14.83860811 35.46170839 14.85881592 29.66658115 14.88801479 C25.2116051 14.90635941 20.75677551 14.90608776 16.30177116 14.90037727 C14.16513146 14.90022384 12.02848196 14.90628621 9.89187813 14.91866875 C6.90417365 14.9335435 3.91760066 14.92292708 0.92993164 14.90576172 C0.04717056 14.91542969 -0.83559052 14.92509766 -1.74510193 14.93505859 C-5.79586713 14.88631584 -7.97801272 14.70058006 -11.53138733 12.59535217 C-13.47851562 10.40405273 -13.47851562 10.40405273 -14.04101562 6.84155273 C-13.47851562 3.40405273 -13.47851562 3.40405273 -12.0357666 1.71446228 C-8.10667745 -0.29891692 -4.35470465 -0.02165977 0 0 Z " fill="#080808" transform="translate(91.478515625,61.595947265625)"/>
<path d="M0 0 C9.24 0 18.48 0 28 0 C28 9.9 28 19.8 28 30 C18.76 30 9.52 30 0 30 C0 20.1 0 10.2 0 0 Z " fill="#2E9FEF" transform="translate(91,254)"/>
<path d="M0 0 C9.24 0 18.48 0 28 0 C28 9.9 28 19.8 28 30 C18.76 30 9.52 30 0 30 C0 20.1 0 10.2 0 0 Z " fill="#2E9FEF" transform="translate(91,211)"/>
<path d="M0 0 C9.24 0 18.48 0 28 0 C28 9.57 28 19.14 28 29 C18.76 29 9.52 29 0 29 C0 19.43 0 9.86 0 0 Z " fill="#30A3F6" transform="translate(91,340)"/>
<path d="M0 0 C9.24 0 18.48 0 28 0 C28 9.57 28 19.14 28 29 C18.76 29 9.52 29 0 29 C0 19.43 0 9.86 0 0 Z " fill="#30A3F6" transform="translate(91,297)"/>
</svg>
